<?xml version="1.0" encoding="UTF-8" standalone="no"?>
<!-- Created with Inkscape (http://www.inkscape.org/) -->

<svg
   xmlns:dc="http://purl.org/dc/elements/1.1/"
   xmlns:cc="http://creativecommons.org/ns#"
   xmlns:rdf="http://www.w3.org/1999/02/22-rdf-syntax-ns#"
   xmlns:svg="http://www.w3.org/2000/svg"
   xmlns="http://www.w3.org/2000/svg"
   xmlns:sodipodi="http://sodipodi.sourceforge.net/DTD/sodipodi-0.dtd"
   xmlns:inkscape="http://www.inkscape.org/namespaces/inkscape"
   width="744.09448819"
   height="1052.3622047"
   id="svg2"
   version="1.1"
   inkscape:version="0.48.3.1 r9886"
   sodipodi:docname="workflow.svg">
  <sodipodi:namedview
     id="base"
     pagecolor="#ffffff"
     bordercolor="#666666"
     borderopacity="1.0"
     inkscape:pageopacity="0.0"
     inkscape:pageshadow="2"
     inkscape:zoom="1.4"
     inkscape:cx="379.54788"
     inkscape:cy="205.32257"
     inkscape:document-units="px"
     inkscape:current-layer="layer1"
     showgrid="false"
     inkscape:window-width="1415"
     inkscape:window-height="935"
     inkscape:window-x="330"
     inkscape:window-y="242"
     inkscape:window-maximized="0"
     inkscape:snap-grids="true"
     showguides="true"
     inkscape:guide-bbox="true" />
  <defs
     id="defs4">
    <marker
       inkscape:stockid="Arrow2Lend"
       orient="auto"
       refY="0.0"
       refX="0.0"
       id="Arrow2Lend"
       style="overflow:visible;">
      <path
         id="path3847"
         style="fill-rule:evenodd;stroke-width:0.62500000;stroke-linejoin:round;"
         d="M 8.7185878,4.0337352 L -2.2072895,0.016013256 L 8.7185884,-4.0017078 C 6.9730900,-1.6296469 6.9831476,1.6157441 8.7185878,4.0337352 z "
         transform="scale(1.1) rotate(180) translate(1,0)" />
    </marker>
    <marker
       inkscape:stockid="Arrow2Lend"
       orient="auto"
       refY="0"
       refX="0"
       id="Arrow2Lend-8"
       style="overflow:visible">
      <path
         inkscape:connector-curvature="0"
         id="path3847-8"
         style="fill-rule:evenodd;stroke-width:0.625;stroke-linejoin:round"
         d="M 8.7185878,4.0337352 -2.2072895,0.01601326 8.7185884,-4.0017078 c -1.7454984,2.3720609 -1.7354408,5.6174519 -6e-7,8.035443 z"
         transform="matrix(-1.1,0,0,-1.1,-1.1,0)" />
    </marker>
  </defs>
  <metadata
     id="metadata7">
    <rdf:RDF>
      <cc:Work
         rdf:about="">
        <dc:format>image/svg+xml</dc:format>
        <dc:type
           rdf:resource="http://purl.org/dc/dcmitype/StillImage" />
        <dc:title />
      </cc:Work>
    </rdf:RDF>
  </metadata>
  <g
     id="layer1"
     inkscape:groupmode="layer"
     inkscape:label="Layer 1">
    <rect
       ry="16.310976"
       rx="12.307347"
       y="392.31293"
       x="170.04207"
       height="109.28573"
       width="181.07141"
       id="rect2985"
       style="opacity:0.2;fill:#008080" />
    <g
       transform="matrix(1.9212775,0,0,1.8137738,115.21403,-1617.0566)"
       id="g4449">
      <path
         inkscape:connector-curvature="0"
         id="path2844"
         d="m 104.7944,978.86598 c 0,13.52888 -13.79395,24.49622 -30.80965,24.49622 -17.01571,0 -30.80966,-10.96734 -30.80966,-24.49622 0,-13.52887 13.79395,-24.4962 30.80966,-24.4962 17.0157,0 30.80965,10.96733 30.80965,24.4962 z"
         style="fill:#729fcf;fill-opacity:1;fill-rule:nonzero;stroke:none" />
      <path
         inkscape:connector-curvature="0"
         id="path2844-3"
         d="m 103.42412,979.70978 c 0,13.43025 -13.23431,24.31762 -29.55965,24.31762 -16.32535,0 -29.55966,-10.88737 -29.55966,-24.31762 0,-13.43026 13.23431,-24.31763 29.55966,-24.31763 16.32534,0 29.55965,10.88737 29.55965,24.31763 z"
         style="fill:#eeeeec;fill-opacity:1;fill-rule:nonzero;stroke:none" />
      <path
         inkscape:connector-curvature="0"
         id="path2844-9"
         d="m 106.05711,1009.9282 c 0,12.2736 -11.19345,22.2233 -25.00127,22.2233 -13.80783,0 -25.00128,-9.9497 -25.00128,-22.2233 0,-12.27363 11.19345,-22.22337 25.00128,-22.22337 13.80782,0 25.00127,9.94974 25.00127,22.22337 z"
         style="fill:#eeeeec;fill-opacity:1;fill-rule:nonzero;stroke:none" />
      <path
         inkscape:connector-curvature="0"
         id="path2844-5"
         d="m 125.75508,992.7556 c 0,12.2736 -11.19345,22.2234 -25.00127,22.2234 -13.80783,0 -25.00128,-9.9498 -25.00128,-22.2234 0,-12.27362 11.19345,-22.22336 25.00128,-22.22336 13.80782,0 25.00127,9.94974 25.00127,22.22336 z"
         style="fill:#729fcf;fill-opacity:1;fill-rule:nonzero;stroke:none" />
      <path
         inkscape:connector-curvature="0"
         id="path2844-11"
         d="m 70.19668,999.82666 c 0,12.27364 -11.19345,22.22334 -25.00127,22.22334 -13.80783,0 -25.00128,-9.9497 -25.00128,-22.22334 0,-12.27362 11.19345,-22.22336 25.00128,-22.22336 13.80782,0 25.00127,9.94974 25.00127,22.22336 z"
         style="fill:#729fcf;fill-opacity:1;fill-rule:nonzero;stroke:none" />
      <path
         inkscape:connector-curvature="0"
         id="path2844-11-1"
         d="m 72.61576,1000.9598 c 0,12.2736 -11.47328,22.2233 -25.62628,22.2233 -14.153,0 -25.62627,-9.9497 -25.62627,-22.2233 0,-12.27364 11.47327,-22.22338 25.62627,-22.22338 14.153,0 25.62628,9.94974 25.62628,22.22338 z"
         style="fill:#eeeeec;fill-opacity:1;fill-rule:nonzero;stroke:none" />
      <path
         inkscape:connector-curvature="0"
         id="path2844-1"
         d="m 40.3972,1019.2721 c 0,9.9026 -8.93215,17.9302 -19.95051,17.9302 -11.01837,0 -19.95051,-8.0276 -19.95051,-17.9302 0,-9.9026 8.93214,-17.9302 19.95051,-17.9302 11.01836,0 19.95051,8.0276 19.95051,17.9302 z"
         style="fill:#729fcf;fill-opacity:1;fill-rule:nonzero;stroke:none" />
      <path
         inkscape:connector-curvature="0"
         id="path2844-1-76"
         d="m 40.95786,1019.699 c 0,9.3048 -8.77225,16.8479 -19.59337,16.8479 -10.82112,0 -19.59338,-7.5431 -19.59338,-16.8479 0,-9.3049 8.77226,-16.848 19.59338,-16.848 10.82112,0 19.59337,7.5431 19.59337,16.848 z"
         style="fill:#eeeeec;fill-opacity:1;fill-rule:nonzero;stroke:none" />
      <path
         inkscape:connector-curvature="0"
         id="path2844-5-4"
         d="m 126.18719,994.88834 c 0,12.86536 -11.39333,23.29476 -25.44771,23.29476 -14.05438,0 -25.44771,-10.4294 -25.44771,-23.29476 0,-12.86535 11.39333,-23.29478 25.44771,-23.29478 14.05438,0 25.44771,10.42943 25.44771,23.29478 z"
         style="fill:#eeeeec;fill-opacity:1;fill-rule:nonzero;stroke:none" />
      <path
         inkscape:connector-curvature="0"
         id="path2844-2"
         d="m 150.50382,1000.3317 c 0,12.2737 -11.19345,22.2234 -25.00127,22.2234 -13.80783,0 -25.00128,-9.9497 -25.00128,-22.2234 0,-12.27358 11.19345,-22.22332 25.00128,-22.22332 13.80782,0 25.00127,9.94974 25.00127,22.22332 z"
         style="fill:#729fcf;fill-opacity:1;fill-rule:nonzero;stroke:none" />
      <path
         inkscape:connector-curvature="0"
         id="path2844-2-2"
         d="m 149.75861,1000.2455 c 0,11.5833 -11.2734,20.9733 -25.17984,20.9733 -13.90645,0 -25.17985,-9.39 -25.17985,-20.9733 0,-11.58327 11.2734,-20.97337 25.17985,-20.97337 13.90644,0 25.17984,9.3901 25.17984,20.97337 z"
         style="fill:#eeeeec;fill-opacity:1;fill-rule:nonzero;stroke:none" />
      <path
         inkscape:connector-curvature="0"
         id="path2844-1-7"
         d="m 41.91242,1033.6668 c 0,6.5552 -5.201,11.8693 -11.61676,11.8693 -6.41575,0 -11.61675,-5.3141 -11.61675,-11.8693 0,-6.5553 5.201,-11.8693 11.61675,-11.8693 6.41576,0 11.61676,5.314 11.61676,11.8693 z"
         style="fill:#729fcf;fill-opacity:1;fill-rule:nonzero;stroke:none" />
      <path
         inkscape:connector-curvature="0"
         id="path2844-1-7-2"
         d="m 42.26694,1032.9241 c 0,6.4566 -5.12105,11.6907 -11.43818,11.6907 -6.31714,0 -11.43819,-5.2341 -11.43819,-11.6907 0,-6.4566 5.12105,-11.6908 11.43819,-11.6908 6.31713,0 11.43818,5.2342 11.43818,11.6908 z"
         style="fill:#eeeeec;fill-opacity:1;fill-rule:nonzero;stroke:none" />
      <path
         inkscape:connector-curvature="0"
         id="path2844-4"
         d="m 84.33882,1030.1312 c 0,12.2737 -11.19345,22.2234 -25.00127,22.2234 -13.80783,0 -25.00128,-9.9497 -25.00128,-22.2234 0,-12.2736 11.19345,-22.2233 25.00128,-22.2233 13.80782,0 25.00127,9.9497 25.00127,22.2233 z"
         style="fill:#729fcf;fill-opacity:1;fill-rule:nonzero;stroke:none" />
      <path
         inkscape:connector-curvature="0"
         id="path2844-4-2"
         d="m 84.47542,1029.5542 c 0,12.0144 -10.93019,21.7539 -24.41325,21.7539 -13.48308,0 -24.41327,-9.7395 -24.41327,-21.7539 0,-12.0144 10.93019,-21.754 24.41327,-21.754 13.48306,0 24.41325,9.7396 24.41325,21.754 z"
         style="fill:#eeeeec;fill-opacity:1;fill-rule:nonzero;stroke:none" />
      <path
         inkscape:connector-curvature="0"
         id="path2844-8"
         d="m 139.39213,1020.0297 c 0,12.2736 -11.19345,22.2234 -25.00127,22.2234 -13.80783,0 -25.00128,-9.9498 -25.00128,-22.2234 0,-12.2736 11.19345,-22.22335 25.00128,-22.22335 13.80782,0 25.00127,9.94975 25.00127,22.22335 z"
         style="fill:#729fcf;fill-opacity:1;fill-rule:nonzero;stroke:none" />
      <path
         inkscape:connector-curvature="0"
         id="path2844-8-1"
         d="m 138.06218,1019.7544 c 0,11.8052 -11.21344,21.3752 -25.04592,21.3752 -13.83248,0 -25.04591,-9.57 -25.04591,-21.3752 0,-11.8051 11.21343,-21.37511 25.04591,-21.37511 13.83248,0 25.04592,9.57001 25.04592,21.37511 z"
         style="fill:#eeeeec;fill-opacity:1;fill-rule:nonzero;stroke:none" />
      <path
         inkscape:connector-curvature="0"
         id="path2844-1-7-6"
         d="m 90.95831,1047.975 c -7.9716,1.3183 -15.50224,-3.8048 -16.82016,-11.4427 -1.31791,-7.638 4.07596,-14.8984 12.04756,-16.2166 7.9716,-1.3183 15.50224,3.8048 16.82016,11.4428 1.31792,7.6379 -4.07596,14.8983 -12.04756,16.2165 z"
         style="fill:#729fcf;fill-opacity:1;fill-rule:nonzero;stroke:none" />
      <path
         inkscape:connector-curvature="0"
         id="path2844-1-7-6-5"
         d="m 91.26841,1046.5778 c -7.83783,1.3182 -15.2421,-3.8049 -16.5379,-11.4428 -1.2958,-7.6379 4.00756,-14.8984 11.84539,-16.2166 7.83783,-1.3183 15.24211,3.8048 16.53791,11.4428 1.29579,7.6379 -4.00757,14.8983 -11.8454,16.2166 z"
         style="fill:#eeeeec;fill-opacity:1;fill-rule:nonzero;stroke:none" />
    </g>
    <text
       xml:space="preserve"
       style="font-size:12px;font-style:normal;font-weight:normal;line-height:125%;letter-spacing:0px;word-spacing:0px;fill:#000000;fill-opacity:1;stroke:none;font-family:Sans"
       x="187.18492"
       y="483.74152"
       id="text3312"
       sodipodi:linespacing="125%"><tspan
         sodipodi:role="line"
         id="tspan3314"
         x="187.18492"
         y="483.74152">harvest manager</tspan></text>
    <path
       sodipodi:nodetypes="cc"
       style="fill:none;stroke:#000000;stroke-width:1;stroke-linecap:butt;stroke-linejoin:miter;stroke-miterlimit:4;stroke-opacity:1;stroke-dasharray:3, 3;stroke-dashoffset:0;marker-end:url(#Arrow2Lend)"
       d="m 165.08559,232.5529 37.92639,135.29228"
       id="path3318"
       inkscape:connector-curvature="0" />
    <path
       sodipodi:nodetypes="cc"
       style="fill:none;stroke:#000000;stroke-width:1;stroke-linecap:butt;stroke-linejoin:miter;stroke-miterlimit:4;stroke-opacity:1;stroke-dasharray:3, 3;stroke-dashoffset:0;marker-end:url(#Arrow2Lend)"
       d="M 334.75235,239.81471 299.13087,372.41444"
       id="path3320"
       inkscape:connector-curvature="0" />
    <text
       sodipodi:linespacing="125%"
       id="text3346"
       y="332.36237"
       x="111.17603"
       style="font-size:12px;font-style:normal;font-weight:normal;line-height:125%;letter-spacing:0px;word-spacing:0px;fill:#000000;fill-opacity:1;stroke:none;font-family:Sans"
       xml:space="preserve"><tspan
         y="332.36237"
         x="111.17603"
         id="tspan3348"
         sodipodi:role="line">OAI-PMH</tspan><tspan
         y="347.36237"
         x="111.17603"
         sodipodi:role="line"
         id="tspan3257">protocol</tspan><tspan
         y="362.36237"
         x="111.17603"
         sodipodi:role="line"
         id="tspan3259" /></text>
    <path
       sodipodi:nodetypes="cc"
       style="fill:none;stroke:#000000;stroke-width:1;stroke-linecap:butt;stroke-linejoin:miter;stroke-miterlimit:4;stroke-opacity:1;stroke-dasharray:1, 1;stroke-dashoffset:0;marker-end:url(#Arrow2Lend)"
       d="m 381.22063,390.94149 c 44.5137,-94.33399 128.59562,-58.76077 147.5687,-29.01956"
       id="path3217"
       inkscape:connector-curvature="0" />
    <text
       xml:space="preserve"
       style="font-size:12px;font-style:normal;font-weight:normal;line-height:125%;letter-spacing:0px;word-spacing:0px;fill:#000000;fill-opacity:1;stroke:none;font-family:Sans"
       x="364.08273"
       y="407.93433"
       id="text3219"
       sodipodi:linespacing="125%"><tspan
         sodipodi:role="line"
         id="tspan3221"
         x="364.08273"
         y="407.93433">CMDI </tspan><tspan
         sodipodi:role="line"
         x="364.08273"
         y="422.93433"
         id="tspan4231">XML files</tspan></text>
    <rect
       style="opacity:0.2;fill:#008080"
       id="rect3223"
       width="205.32379"
       height="180.01128"
       x="427.81256"
       y="367.35748"
       rx="9.3215408"
       ry="10.021123" />
    <text
       sodipodi:linespacing="125%"
       id="text3233"
       y="188.68559"
       x="225.38023"
       style="font-size:12px;font-style:normal;font-weight:normal;line-height:125%;letter-spacing:0px;word-spacing:0px;fill:#000000;fill-opacity:1;stroke:none;font-family:Sans"
       xml:space="preserve"><tspan
         y="188.68559"
         x="225.38023"
         id="tspan3235"
         sodipodi:role="line">DASISH</tspan><tspan
         y="203.68559"
         x="225.38023"
         sodipodi:role="line"
         id="tspan3319">OAI provider</tspan><tspan
         id="tspan3237"
         y="218.68559"
         x="225.38023"
         sodipodi:role="line">endpoints</tspan></text>
    <path
       sodipodi:type="arc"
       style="opacity:0.4;fill:#008080"
       id="path3249"
       sodipodi:cx="73.928574"
       sodipodi:cy="279.14789"
       sodipodi:rx="6.7857141"
       sodipodi:ry="6.0714288"
       d="m 80.714288,279.14789 a 6.7857141,6.0714288 0 1 1 -13.571429,0 6.7857141,6.0714288 0 1 1 13.571429,0 z"
       transform="translate(161.80239,-29.827748)" />
    <path
       transform="translate(266.84083,-52.439793)"
       d="m 80.714288,279.14789 a 6.7857141,6.0714288 0 1 1 -13.571429,0 6.7857141,6.0714288 0 1 1 13.571429,0 z"
       sodipodi:ry="6.0714288"
       sodipodi:rx="6.7857141"
       sodipodi:cy="279.14789"
       sodipodi:cx="73.928574"
       id="path3251"
       style="opacity:0.4;fill:#008080"
       sodipodi:type="arc" />
    <path
       sodipodi:type="arc"
       style="opacity:0.4;fill:#008080"
       id="path3253"
       sodipodi:cx="73.928574"
       sodipodi:cy="279.14789"
       sodipodi:rx="6.7857141"
       sodipodi:ry="6.0714288"
       d="m 80.714288,279.14789 a 6.7857141,6.0714288 0 1 1 -13.571429,0 6.7857141,6.0714288 0 1 1 13.571429,0 z"
       transform="translate(87.104402,-57.640293)" />
    <text
       xml:space="preserve"
       style="font-size:12px;font-style:normal;font-weight:normal;line-height:125%;letter-spacing:0px;word-spacing:0px;fill:#000000;fill-opacity:1;stroke:none;font-family:Sans"
       x="441.6142"
       y="489.55038"
       id="text3301"
       sodipodi:linespacing="125%"><tspan
         sodipodi:role="line"
         id="tspan3303"
         x="441.6142"
         y="489.55038">semantic </tspan><tspan
         sodipodi:role="line"
         x="441.6142"
         y="504.55038"
         id="tspan3305">mapper</tspan></text>
    <rect
       ry="10.021123"
       rx="9.3215408"
       y="536.99133"
       x="163.20738"
       height="114.99999"
       width="166.42856"
       id="rect3307"
       style="opacity:0.2;fill:#008080" />
    <text
       sodipodi:linespacing="125%"
       id="text3309"
       y="637.93005"
       x="175.73276"
       style="font-size:12px;font-style:normal;font-weight:normal;line-height:125%;letter-spacing:0px;word-spacing:0px;fill:#000000;fill-opacity:1;stroke:none;font-family:Sans"
       xml:space="preserve"><tspan
         id="tspan3313"
         y="637.93005"
         x="175.73276"
         sodipodi:role="line">normaliser</tspan></text>
    <path
       inkscape:connector-curvature="0"
       id="path3315"
       d="M 447.08464,532.29362 337.82736,576.013"
       style="fill:none;stroke:#000000;stroke-width:1px;stroke-linecap:butt;stroke-linejoin:miter;stroke-opacity:1;marker-end:url(#Arrow2Lend)"
       sodipodi:nodetypes="cc" />
    <text
       xml:space="preserve"
       style="font-size:12px;font-style:normal;font-weight:normal;line-height:125%;letter-spacing:0px;word-spacing:0px;fill:#000000;fill-opacity:1;stroke:none;font-family:Sans"
       x="-270.71429"
       y="585.93365"
       id="text3325"
       sodipodi:linespacing="125%"><tspan
         sodipodi:role="line"
         id="tspan3327"
         x="-270.71429"
         y="585.93365">work</tspan><tspan
         sodipodi:role="line"
         x="-270.71429"
         y="600.93365"
         id="tspan3329">flow</tspan></text>
    <text
       xml:space="preserve"
       style="font-size:12px;font-style:normal;font-weight:normal;line-height:125%;letter-spacing:0px;word-spacing:0px;fill:#000000;fill-opacity:1;stroke:none;font-family:Sans"
       x="469.72092"
       y="465.46356"
       id="text4161"
       sodipodi:linespacing="125%"><tspan
         sodipodi:role="line"
         id="tspan4163"
         x="469.72092"
         y="465.46356" /></text>
    <rect
       style="opacity:0.2;fill:#008080"
       id="rect4165"
       width="73.503204"
       height="43.909382"
       x="184.1955"
       y="407.40213"
       rx="9.3215408"
       ry="10.021123" />
    <text
       xml:space="preserve"
       style="font-size:12px;font-style:normal;font-weight:normal;line-height:125%;letter-spacing:0px;word-spacing:0px;fill:#000000;fill-opacity:1;stroke:none;font-family:Sans"
       x="194.29128"
       y="425.09335"
       id="text4167"
       sodipodi:linespacing="125%"><tspan
         sodipodi:role="line"
         x="194.29128"
         y="425.09335"
         id="tspan4171">endpoint</tspan><tspan
         sodipodi:role="line"
         x="194.29128"
         y="440.09335"
         id="tspan4175">tables</tspan></text>
    <rect
       ry="10.021123"
       rx="9.3215408"
       y="470.32635"
       x="527.7879"
       height="66.530792"
       width="86.209763"
       id="rect4179"
       style="opacity:0.2;fill:#008080" />
    <text
       sodipodi:linespacing="125%"
       id="text4181"
       y="492.05823"
       x="547.5921"
       style="font-size:12px;font-style:normal;font-weight:normal;line-height:125%;letter-spacing:0px;word-spacing:0px;fill:#000000;fill-opacity:1;stroke:none;font-family:Sans"
       xml:space="preserve"><tspan
         id="tspan4183"
         y="492.05823"
         x="547.5921"
         sodipodi:role="line">static</tspan><tspan
         y="507.05823"
         x="547.5921"
         sodipodi:role="line"
         id="tspan4187">mapping</tspan><tspan
         id="tspan4185"
         y="522.05823"
         x="547.5921"
         sodipodi:role="line">tables</tspan></text>
    <rect
       style="opacity:0.2;fill:#008080"
       id="rect4191"
       width="86.584465"
       height="82.857178"
       x="499.50366"
       y="374.86694"
       rx="9.3215408"
       ry="10.021123" />
    <text
       xml:space="preserve"
       style="font-size:12px;font-style:normal;font-weight:normal;line-height:125%;letter-spacing:0px;word-spacing:0px;fill:#000000;fill-opacity:1;stroke:none;font-family:Sans"
       x="512.59399"
       y="395.7366"
       id="text4193"
       sodipodi:linespacing="125%"><tspan
         sodipodi:role="line"
         x="512.59399"
         y="395.7366"
         id="tspan4209">generated</tspan><tspan
         sodipodi:role="line"
         x="512.59399"
         y="410.7366"
         id="tspan4215">mapping</tspan><tspan
         sodipodi:role="line"
         x="512.59399"
         y="425.7366"
         id="tspan4221">tables</tspan></text>
    <text
       sodipodi:linespacing="125%"
       id="text4201"
       y="609.14972"
       x="349.62802"
       style="font-size:12px;font-style:normal;font-weight:normal;line-height:125%;letter-spacing:0px;word-spacing:0px;fill:#000000;fill-opacity:1;stroke:none;font-family:Sans"
       xml:space="preserve"><tspan
         y="609.14972"
         x="349.62802"
         id="tspan4203"
         sodipodi:role="line">XML files</tspan></text>
    <path
       sodipodi:nodetypes="cc"
       style="fill:none;stroke:#000000;stroke-width:1px;stroke-linecap:butt;stroke-linejoin:miter;stroke-opacity:1;marker-end:url(#Arrow2Lend)"
       d="m 314.82242,447.0209 102.09485,-5.27153"
       id="path4225"
       inkscape:connector-curvature="0" />
    <text
       sodipodi:linespacing="125%"
       id="text4227"
       y="470.05878"
       x="363.07254"
       style="font-size:12px;font-style:normal;font-weight:normal;line-height:125%;letter-spacing:0px;word-spacing:0px;fill:#000000;fill-opacity:1;stroke:none;font-family:Sans"
       xml:space="preserve"><tspan
         y="470.05878"
         x="363.07254"
         id="tspan4229"
         sodipodi:role="line">other</tspan><tspan
         y="485.05878"
         x="363.07254"
         sodipodi:role="line"
         id="tspan4233">XML files</tspan></text>
    <rect
       style="opacity:0.2;fill:#008080"
       id="rect4235"
       width="87.724998"
       height="43.802372"
       x="200.98869"
       y="559.17517"
       rx="9.3215408"
       ry="10.021123" />
    <text
       xml:space="preserve"
       style="font-size:12px;font-style:normal;font-weight:normal;line-height:125%;letter-spacing:0px;word-spacing:0px;fill:#000000;fill-opacity:1;stroke:none;font-family:Sans"
       x="214.29463"
       y="585.36462"
       id="text4237"
       sodipodi:linespacing="125%"><tspan
         sodipodi:role="line"
         id="tspan4239"
         x="214.29463"
         y="585.36462">dictionary</tspan></text>
    <rect
       style="opacity:0.2;fill:#008080"
       id="rect4241"
       width="116.42857"
       height="104.28572"
       x="395.48331"
       y="633.54248"
       rx="9.3215408"
       ry="10.021123" />
    <path
       sodipodi:nodetypes="cc"
       style="fill:none;stroke:#000000;stroke-width:1px;stroke-linecap:butt;stroke-linejoin:miter;stroke-opacity:1;marker-end:url(#Arrow2Lend)"
       d="M 306.38268,628.93576 382.99346,658.513"
       id="path4243"
       inkscape:connector-curvature="0" />
    <rect
       ry="10.021123"
       rx="9.3215408"
       y="717.33588"
       x="438.62839"
       height="85.523148"
       width="102.68037"
       id="rect4245"
       style="opacity:0.2;fill:#008080" />
    <text
       xml:space="preserve"
       style="font-size:12px;font-style:normal;font-weight:normal;line-height:125%;letter-spacing:0px;word-spacing:0px;fill:#000000;fill-opacity:1;stroke:none;font-family:Sans"
       x="452.30942"
       y="755.83527"
       id="text4247"
       sodipodi:linespacing="125%"><tspan
         sodipodi:role="line"
         id="tspan4249"
         x="452.30942"
         y="755.83527">ckan</tspan><tspan
         sodipodi:role="line"
         x="452.30942"
         y="770.83527"
         id="tspan4251">configuration</tspan></text>
    <text
       xml:space="preserve"
       style="font-size:12px;font-style:normal;font-weight:normal;line-height:125%;letter-spacing:0px;word-spacing:0px;fill:#000000;fill-opacity:1;stroke:none;font-family:Sans"
       x="321.07507"
       y="728.55518"
       id="text4253"
       sodipodi:linespacing="125%"><tspan
         sodipodi:role="line"
         x="321.07507"
         y="728.55518"
         id="tspan4261" /><tspan
         sodipodi:role="line"
         x="321.07507"
         y="743.55518"
         id="tspan4265">JSON lines </tspan><tspan
         sodipodi:role="line"
         x="321.07507"
         y="758.55518"
         id="tspan4259">file</tspan></text>
    <path
       sodipodi:nodetypes="cc"
       style="fill:none;stroke:#000000;stroke-width:1px;stroke-linecap:butt;stroke-linejoin:miter;stroke-opacity:1;marker-end:url(#Arrow2Lend)"
       d="m 422.84098,711.59569 -35.25257,60.75636"
       id="path4257"
       inkscape:connector-curvature="0" />
    <rect
       ry="10.021123"
       rx="9.3215408"
       y="778.84595"
       x="324.46442"
       height="114.99999"
       width="166.42856"
       id="rect4267"
       style="opacity:0.2;fill:#008080" />
    <text
       xml:space="preserve"
       style="font-size:12px;font-style:normal;font-weight:normal;line-height:125%;letter-spacing:0px;word-spacing:0px;fill:#000000;fill-opacity:1;stroke:none;font-family:Sans"
       x="424.64288"
       y="667.71936"
       id="text4269"
       sodipodi:linespacing="125%"><tspan
         sodipodi:role="line"
         id="tspan4271"
         x="424.64288"
         y="667.71936">uploading</tspan></text>
    <text
       xml:space="preserve"
       style="font-size:12px;font-style:normal;font-weight:normal;line-height:125%;letter-spacing:0px;word-spacing:0px;fill:#000000;fill-opacity:1;stroke:none;font-family:Sans"
       x="359.99997"
       y="825.21936"
       id="text4273"
       sodipodi:linespacing="125%"><tspan
         sodipodi:role="line"
         id="tspan4275"
         x="359.99997"
         y="825.21936">ckan based</tspan><tspan
         sodipodi:role="line"
         x="359.99997"
         y="840.21936"
         id="tspan4289">DASISH</tspan><tspan
         sodipodi:role="line"
         x="359.99997"
         y="855.21936"
         id="tspan4283">JMD</tspan><tspan
         sodipodi:role="line"
         x="359.99997"
         y="870.21936"
         id="tspan4287">Catalog</tspan></text>
  </g>
  <g
     inkscape:groupmode="layer"
     id="layer2"
     inkscape:label="Layer">
    <path
       inkscape:connector-curvature="0"
       id="path2999"
       d="m 236.18219,262.22498 14.98639,93.89089"
       style="fill:none;stroke:#000000;stroke-width:1;stroke-linecap:butt;stroke-linejoin:miter;stroke-miterlimit:4;stroke-opacity:1;stroke-dasharray:4, 2;stroke-dashoffset:0;marker-end:url(#Arrow2Lend)"
       sodipodi:nodetypes="cc" />
  </g>
</svg>
